<svg xmlns="http://www.w3.org/2000/svg" viewBox="0 0 512 512"><title>Artboard 113</title><g id="Sagrada_Familia" data-name="Sagrada Familia"><polygon points="426.667 490.667 426.667 384 448 320 469.333 320 490.667 384 489.312 490.667 426.667 490.667" style="fill:#9e6611"/><path d="M362.66667,490.66667V407.44556c0-72.34239,0-236.77889,42.66666-300.77889C448,170.66667,448,335.10312,448,407.44549v83.22118Z" style="fill:#cb8c01"/><path d="M448,480H426.66667V407.44792c0-61.6875,0-206.16667-31.04167-274.22917l19.41667-8.85417C448,196.65625,448,339.03125,448,407.44792Z" style="fill:#b37900"/><polygon points="21.333 490.667 21.333 384 42.667 320 64 320 85.333 384 83.979 490.667 21.333 490.667" style="fill:#cb8c01"/><polygon points="469.333 384 256 384 42.667 384 21.333 448 21.333 490.667 256 490.667 490.667 490.667 490.667 448 469.333 384" style="fill:#456075"/><polygon points="448 448 469.333 384 490.667 448 490.667 490.667 448 490.667 448 448" style="fill:#d6a436"/><polygon points="64 448 42.667 384 21.333 448 21.333 490.667 64 490.667 64 448" style="fill:#d6a436"/><polygon points="192 277.333 213.333 256 234.667 277.333 256 234.667 277.333 277.333 298.667 256 320 277.333 320 341.333 192 341.333 192 277.333" style="fill:#456075"/><path d="M64,490.66667V407.44556c0-72.34239,0-236.77889,42.66667-300.77889,42.66666,64,42.66666,228.43645,42.66666,300.77882v83.22118Z" style="fill:#e0bb69"/><path d="M149.33333,480H128V407.44792c0-61.6875,0-206.16667-31.04167-274.22917l19.41667-8.85417c32.95833,72.29167,32.95833,214.66667,32.95833,283.08334Z" style="fill:#d6a436"/><path d="M128,490.66667V322.11223c0-72.3424,0-236.7789,42.66667-300.7789,42.66666,64,42.66666,228.43645,42.66666,300.77882V490.66667Z" style="fill:#e0bb69"/><path d="M213.33333,490.66667H192V322.11458c0-61.6875,0-206.16666-31.04167-274.22916L180.375,39.03125c32.95833,72.29167,32.95833,214.66667,32.95833,283.08333Z" style="fill:#d6a436"/><path d="M298.66667,490.66667V322.11223c0-72.3424,0-236.7789,42.66666-300.7789C384,85.33333,384,249.76978,384,322.11215V490.66667Z" style="fill:#d6a436"/><path d="M384,490.66667H362.66667V322.11458c0-61.6875,0-206.16666-31.04167-274.22916l19.41667-8.85417C384,111.32292,384,253.69792,384,322.11458Z" style="fill:#cb8c01"/><rect x="85.33333" y="298.66667" width="21.33333" height="106.66667" style="fill:#555754"/><rect x="106.66667" y="277.33333" width="21.33333" height="106.66667" style="fill:#e9cf95"/><rect x="149.33333" y="213.33333" width="21.33333" height="149.33333" style="fill:#e9cf95"/><rect x="128" y="213.33333" width="21.33333" height="149.33333" style="fill:#555754"/><rect x="170.66667" y="234.66667" width="21.33333" height="106.66667" style="fill:#3d3f3c"/><rect x="85.33333" y="256" width="21.33333" height="21.33333" style="fill:#555754"/><rect x="149.33333" y="170.66667" width="21.33333" height="21.33333" style="fill:#555754"/><rect x="85.33333" y="213.33333" width="21.33333" height="21.33333" style="fill:#555754"/><rect x="106.66667" y="234.66667" width="21.33333" height="21.33333" style="fill:#3d3f3c"/><rect x="170.66667" y="149.33333" width="21.33333" height="21.33333" style="fill:#555754"/><rect x="170.66667" y="64" width="21.33333" height="21.33333" style="fill:#3d3f3c"/><rect x="149.33333" y="106.66667" width="21.33333" height="21.33333" style="fill:#555754"/><rect x="106.66667" y="170.66667" width="21.33333" height="21.33333" style="fill:#3d3f3c"/><rect x="405.33333" y="298.66667" width="21.33333" height="106.66667" transform="translate(832 704) rotate(-180)" style="fill:#3d3f3c"/><rect x="405.33333" y="256" width="21.33333" height="21.33333" transform="translate(832 533.33333) rotate(-180)" style="fill:#555754"/><rect x="405.33333" y="213.33333" width="21.33333" height="21.33333" transform="translate(832 448) rotate(-180)" style="fill:#3d3f3c"/><rect x="384" y="234.66667" width="21.33333" height="21.33333" transform="translate(789.33333 490.66667) rotate(-180)" style="fill:#555754"/><rect x="384" y="170.66667" width="21.33333" height="21.33333" transform="translate(789.33333 362.66667) rotate(-180)" style="fill:#555754"/><rect x="320" y="234.66667" width="21.33333" height="106.66667" style="fill:#555754"/><rect x="362.66667" y="213.33333" width="21.33333" height="170.66667" style="fill:#3d3f3c"/><polygon points="256 277.333 64 384 42.667 490.667 469.333 490.667 448 384 256 277.333" style="fill:#cb8c01"/><path d="M448,490.66667H426.66667V448.30208a21.66343,21.66343,0,0,0-21.63542-21.63541V405.33333A43.01116,43.01116,0,0,1,448,448.30208Z" style="fill:#d6a436"/><path d="M341.33333,490.66667H320V426.96875a21.66343,21.66343,0,0,0-21.63542-21.63542V384a43.01116,43.01116,0,0,1,42.96875,42.96875Z" style="fill:#d6a436"/><path d="M213.33331,405.33333h0a21.33331,21.33331,0,0,1,21.33331,21.33331v64a0,0,0,0,1,0,0H192a0,0,0,0,1,0,0v-64a21.33331,21.33331,0,0,1,21.33331-21.33331Z" style="fill:#555754"/><path d="M298.66665,405.33333h0A21.33331,21.33331,0,0,1,320,426.66665v64a0,0,0,0,1,0,0H277.33333a0,0,0,0,1,0,0v-64A21.33331,21.33331,0,0,1,298.66665,405.33333Z" style="fill:#555754"/><path d="M106.66665,426.66667h0A21.33331,21.33331,0,0,1,128,448v42.66669a0,0,0,0,1,0,0H85.33333a0,0,0,0,1,0,0V448A21.33331,21.33331,0,0,1,106.66665,426.66667Z" style="fill:#3d3f3c"/><path d="M405.33331,426.66667h0A21.33331,21.33331,0,0,1,426.66667,448v42.66669a0,0,0,0,1,0,0H384a0,0,0,0,1,0,0V448A21.33331,21.33331,0,0,1,405.33331,426.66667Z" style="fill:#3d3f3c"/><path d="M256,277.33333,64,384,42.66667,490.66667H64l37.38072-74.76145a72.83672,72.83672,0,0,1,13.64376-18.9297L128,384l0,0a72.83649,72.83649,0,0,1,21.33331,51.50317v55.16348h21.33334l6.2484-31.242a185.6973,185.6973,0,0,1,79.08487-118.09127l.00006,0,.00007,0a185.69732,185.69732,0,0,1,79.08486,118.09127l6.2484,31.242h21.33334V435.50319A72.83649,72.83649,0,0,1,384,384l0,0,12.97552,12.97552a72.83672,72.83672,0,0,1,13.64376,18.9297L448,490.66667h21.33333L448,384Z" style="fill:#e9cf95"/><path d="M170.66667,480H149.33333V435.5A73.3345,73.3345,0,0,0,128,384l-7.54167-7.54167L135.54167,361.375l7.54166,7.54167A94.82133,94.82133,0,0,1,170.66667,435.5Z" style="fill:#efddb4"/><path d="M339.61458,482.09375l-4.53125-22.66667A184.47644,184.47644,0,0,0,256,341.33333l-5.91667-3.94791,11.83334-17.75,5.91666,3.94791A205.64053,205.64053,0,0,1,356,455.23958l4.53125,22.66667Z" style="fill:#efddb4"/><path d="M445.05208,484.77083l-34.4375-68.86458a72.28979,72.28979,0,0,0-13.625-18.91667l-20.53125-20.53125L391.54167,361.375l20.52083,20.52083A93.44306,93.44306,0,0,1,429.69792,406.375l34.4375,68.85417Z" style="fill:#efddb4"/><path d="M66.94792,484.77083l-19.08334-9.54166,34.4375-68.86459a93.58557,93.58557,0,0,1,17.64584-24.47916l15.0625,15.10416a72.41,72.41,0,0,0-13.625,18.90625Z" style="fill:#e0bb69"/><path d="M172.38542,482.09375l-20.91667-4.1875L156,455.23958a205.64053,205.64053,0,0,1,88.16667-131.65625L256,341.33333a184.47644,184.47644,0,0,0-79.08333,118.09375Z" style="fill:#e0bb69"/><path d="M362.66667,480H341.33333V435.5a94.82133,94.82133,0,0,1,27.58334-66.58333L384,384a73.379,73.379,0,0,0-21.33333,51.5Z" style="fill:#e0bb69"/><polygon points="391.531 383.531 256 341.823 120.469 383.531 114.198 363.135 256 319.51 397.802 363.135 391.531 383.531" style="fill:#e0bb69"/><polygon points="448 384 256 277.333 64 384 256 320 448 384" style="fill:#7f92a0"/><rect x="341.33333" y="192" width="21.33333" height="21.33333" style="fill:#3d3f3c"/><rect x="320" y="170.66667" width="21.33333" height="21.33333" style="fill:#777976"/><rect x="341.33333" y="128" width="21.33333" height="21.33333" style="fill:#3d3f3c"/><rect x="320" y="85.33333" width="21.33333" height="21.33333" style="fill:#777976"/><rect x="192" y="426.66667" width="21.33333" height="64" style="fill:#3d3f3c"/><rect x="277.33333" y="426.66667" width="21.33333" height="64" style="fill:#3d3f3c"/><rect x="85.33333" y="448" width="21.33333" height="42.66667" style="fill:#242623"/><rect x="384" y="448" width="21.33333" height="42.66667" style="fill:#242623"/><path d="M256,490.66667H234.66667V426.96875a21.66343,21.66343,0,0,0-21.63542-21.63542V384A43.01116,43.01116,0,0,1,256,426.96875Z" style="fill:#d6a436"/><path d="M149.33333,490.66667H128V448.30208a21.66342,21.66342,0,0,0-21.63542-21.63541V405.33333a43.01116,43.01116,0,0,1,42.96875,42.96875Z" style="fill:#d6a436"/><path d="M192,234.66667s21.33333-21.33334,64-21.33334,64,21.33334,64,21.33334v-64s-21.33333-21.33334-64-21.33334-64,21.33334-64,21.33334Z" style="fill:#d6a436"/><path d="M302.94792,184.17708c-5.4375-4.0625-20.90625-13.51041-46.94792-13.51041-26.07292,0-41.51042,9.44791-46.94792,13.51041l-12.77083-17.08333C203.41667,161.75,223.52083,149.33333,256,149.33333c31.27083,0,50.83333,11.125,59.71875,17.76042Z" style="fill:#e9cf95"/><path d="M304.5,224.27083c-9.8125-4.98958-26.19792-10.9375-48.5-10.9375s-38.6875,5.94792-48.5,10.9375L197.83333,205.25c34.10417-17.33333,82.22917-17.33333,116.33334,0Z" style="fill:#cb8c01"/></g></svg>